<mxfile host="app.diagrams.net" modified="2024-07-11T03:35:27.334Z" agent="Mozilla/5.0 (Windows NT 10.0; Win64; x64) AppleWebKit/537.36 (KHTML, like Gecko) Chrome/126.0.0.0 Safari/537.36" etag="VC1HMKATcOufTQHxog1T" version="24.6.4" type="device">
  <diagram name="第 1 页" id="opXZlf81wNe0EPN2mauX">
    <mxGraphModel dx="1050" dy="530" grid="1" gridSize="10" guides="1" tooltips="1" connect="1" arrows="1" fold="1" page="1" pageScale="1" pageWidth="827" pageHeight="1169" background="none" math="0" shadow="0">
      <root>
        <mxCell id="0" />
        <mxCell id="1" parent="0" />
        <mxCell id="v_qmOf7fBxiH28mY6GMx-1" value="家教" style="rounded=0;whiteSpace=wrap;html=1;fontSize=20;" vertex="1" parent="1">
          <mxGeometry x="200" y="220" width="120" height="60" as="geometry" />
        </mxCell>
        <mxCell id="v_qmOf7fBxiH28mY6GMx-2" value="學生" style="rounded=0;whiteSpace=wrap;html=1;fontSize=20;" vertex="1" parent="1">
          <mxGeometry x="510" y="220" width="120" height="60" as="geometry" />
        </mxCell>
        <mxCell id="v_qmOf7fBxiH28mY6GMx-3" value="授課" style="rhombus;whiteSpace=wrap;html=1;fontSize=20;" vertex="1" parent="1">
          <mxGeometry x="373.5" y="210" width="80" height="80" as="geometry" />
        </mxCell>
        <mxCell id="v_qmOf7fBxiH28mY6GMx-4" value="" style="endArrow=none;html=1;rounded=0;exitX=1;exitY=0.5;exitDx=0;exitDy=0;entryX=0;entryY=0.5;entryDx=0;entryDy=0;" edge="1" parent="1" source="v_qmOf7fBxiH28mY6GMx-1" target="v_qmOf7fBxiH28mY6GMx-3">
          <mxGeometry width="50" height="50" relative="1" as="geometry">
            <mxPoint x="370" y="330" as="sourcePoint" />
            <mxPoint x="440" y="250" as="targetPoint" />
          </mxGeometry>
        </mxCell>
        <mxCell id="v_qmOf7fBxiH28mY6GMx-7" value="M" style="edgeLabel;html=1;align=center;verticalAlign=middle;resizable=0;points=[];fontSize=20;" vertex="1" connectable="0" parent="v_qmOf7fBxiH28mY6GMx-4">
          <mxGeometry x="0.4841" y="-1" relative="1" as="geometry">
            <mxPoint y="-21" as="offset" />
          </mxGeometry>
        </mxCell>
        <mxCell id="v_qmOf7fBxiH28mY6GMx-5" value="" style="endArrow=none;html=1;rounded=0;exitX=0;exitY=0.5;exitDx=0;exitDy=0;entryX=1;entryY=0.5;entryDx=0;entryDy=0;" edge="1" parent="1" source="v_qmOf7fBxiH28mY6GMx-2" target="v_qmOf7fBxiH28mY6GMx-3">
          <mxGeometry width="50" height="50" relative="1" as="geometry">
            <mxPoint x="380" y="340" as="sourcePoint" />
            <mxPoint x="450" y="260" as="targetPoint" />
          </mxGeometry>
        </mxCell>
        <mxCell id="v_qmOf7fBxiH28mY6GMx-9" value="N" style="edgeLabel;html=1;align=center;verticalAlign=middle;resizable=0;points=[];fontSize=20;" vertex="1" connectable="0" parent="v_qmOf7fBxiH28mY6GMx-5">
          <mxGeometry x="0.7878" y="1" relative="1" as="geometry">
            <mxPoint y="-21" as="offset" />
          </mxGeometry>
        </mxCell>
        <mxCell id="v_qmOf7fBxiH28mY6GMx-10" value="姓名" style="ellipse;whiteSpace=wrap;html=1;fontSize=20;" vertex="1" parent="1">
          <mxGeometry x="270" y="60" width="120" height="80" as="geometry" />
        </mxCell>
        <mxCell id="v_qmOf7fBxiH28mY6GMx-11" value="電話" style="ellipse;whiteSpace=wrap;html=1;fontSize=20;" vertex="1" parent="1">
          <mxGeometry x="130" y="60" width="120" height="80" as="geometry" />
        </mxCell>
        <mxCell id="v_qmOf7fBxiH28mY6GMx-12" value="履歷表&lt;div style=&quot;font-size: 18px;&quot;&gt;(家教經驗、備材等)&lt;br style=&quot;font-size: 18px;&quot;&gt;&lt;/div&gt;" style="ellipse;whiteSpace=wrap;html=1;fontSize=18;" vertex="1" parent="1">
          <mxGeometry x="10" y="150" width="120" height="80" as="geometry" />
        </mxCell>
        <mxCell id="v_qmOf7fBxiH28mY6GMx-13" value="姓名" style="ellipse;whiteSpace=wrap;html=1;fontSize=20;" vertex="1" parent="1">
          <mxGeometry x="510" y="60" width="120" height="80" as="geometry" />
        </mxCell>
        <mxCell id="v_qmOf7fBxiH28mY6GMx-14" value="上課科目" style="ellipse;whiteSpace=wrap;html=1;fontSize=20;" vertex="1" parent="1">
          <mxGeometry x="130" y="360" width="120" height="80" as="geometry" />
        </mxCell>
        <mxCell id="v_qmOf7fBxiH28mY6GMx-15" value="學經歷" style="ellipse;whiteSpace=wrap;html=1;fontSize=20;" vertex="1" parent="1">
          <mxGeometry x="10" y="270" width="120" height="80" as="geometry" />
        </mxCell>
        <mxCell id="v_qmOf7fBxiH28mY6GMx-16" value="年齡" style="ellipse;whiteSpace=wrap;html=1;fontSize=20;" vertex="1" parent="1">
          <mxGeometry x="690" y="290" width="120" height="80" as="geometry" />
        </mxCell>
        <mxCell id="v_qmOf7fBxiH28mY6GMx-17" value="電話" style="ellipse;whiteSpace=wrap;html=1;fontSize=20;" vertex="1" parent="1">
          <mxGeometry x="690" y="130" width="120" height="80" as="geometry" />
        </mxCell>
        <mxCell id="v_qmOf7fBxiH28mY6GMx-18" value="性別" style="ellipse;whiteSpace=wrap;html=1;fontSize=20;" vertex="1" parent="1">
          <mxGeometry x="510" y="360" width="120" height="80" as="geometry" />
        </mxCell>
        <mxCell id="v_qmOf7fBxiH28mY6GMx-19" value="性別" style="ellipse;whiteSpace=wrap;html=1;fontSize=20;" vertex="1" parent="1">
          <mxGeometry x="270" y="360" width="120" height="80" as="geometry" />
        </mxCell>
        <mxCell id="v_qmOf7fBxiH28mY6GMx-20" value="" style="endArrow=none;html=1;rounded=0;entryX=0.5;entryY=1;entryDx=0;entryDy=0;exitX=0.75;exitY=0;exitDx=0;exitDy=0;" edge="1" parent="1" source="v_qmOf7fBxiH28mY6GMx-1" target="v_qmOf7fBxiH28mY6GMx-10">
          <mxGeometry width="50" height="50" relative="1" as="geometry">
            <mxPoint x="403.5" y="385" as="sourcePoint" />
            <mxPoint x="453.5" y="335" as="targetPoint" />
            <Array as="points" />
          </mxGeometry>
        </mxCell>
        <mxCell id="v_qmOf7fBxiH28mY6GMx-21" value="" style="endArrow=none;html=1;rounded=0;entryX=0.5;entryY=1;entryDx=0;entryDy=0;exitX=0.25;exitY=0;exitDx=0;exitDy=0;" edge="1" parent="1" source="v_qmOf7fBxiH28mY6GMx-1" target="v_qmOf7fBxiH28mY6GMx-11">
          <mxGeometry width="50" height="50" relative="1" as="geometry">
            <mxPoint x="413.5" y="395" as="sourcePoint" />
            <mxPoint x="463.5" y="345" as="targetPoint" />
            <Array as="points" />
          </mxGeometry>
        </mxCell>
        <mxCell id="v_qmOf7fBxiH28mY6GMx-22" value="" style="endArrow=none;html=1;rounded=0;entryX=1;entryY=0.5;entryDx=0;entryDy=0;exitX=0;exitY=0.25;exitDx=0;exitDy=0;" edge="1" parent="1" source="v_qmOf7fBxiH28mY6GMx-1" target="v_qmOf7fBxiH28mY6GMx-12">
          <mxGeometry width="50" height="50" relative="1" as="geometry">
            <mxPoint x="423.5" y="405" as="sourcePoint" />
            <mxPoint x="473.5" y="355" as="targetPoint" />
            <Array as="points" />
          </mxGeometry>
        </mxCell>
        <mxCell id="v_qmOf7fBxiH28mY6GMx-23" value="" style="endArrow=none;html=1;rounded=0;entryX=1;entryY=0.5;entryDx=0;entryDy=0;exitX=0;exitY=0.75;exitDx=0;exitDy=0;" edge="1" parent="1" source="v_qmOf7fBxiH28mY6GMx-1" target="v_qmOf7fBxiH28mY6GMx-15">
          <mxGeometry width="50" height="50" relative="1" as="geometry">
            <mxPoint x="433.5" y="415" as="sourcePoint" />
            <mxPoint x="483.5" y="365" as="targetPoint" />
            <Array as="points" />
          </mxGeometry>
        </mxCell>
        <mxCell id="v_qmOf7fBxiH28mY6GMx-24" value="" style="endArrow=none;html=1;rounded=0;entryX=0.5;entryY=0;entryDx=0;entryDy=0;exitX=0.25;exitY=1;exitDx=0;exitDy=0;" edge="1" parent="1" source="v_qmOf7fBxiH28mY6GMx-1" target="v_qmOf7fBxiH28mY6GMx-14">
          <mxGeometry width="50" height="50" relative="1" as="geometry">
            <mxPoint x="443.5" y="425" as="sourcePoint" />
            <mxPoint x="493.5" y="375" as="targetPoint" />
            <Array as="points" />
          </mxGeometry>
        </mxCell>
        <mxCell id="v_qmOf7fBxiH28mY6GMx-25" value="" style="endArrow=none;html=1;rounded=0;entryX=0.5;entryY=0;entryDx=0;entryDy=0;exitX=0.75;exitY=1;exitDx=0;exitDy=0;" edge="1" parent="1" source="v_qmOf7fBxiH28mY6GMx-1" target="v_qmOf7fBxiH28mY6GMx-19">
          <mxGeometry width="50" height="50" relative="1" as="geometry">
            <mxPoint x="453.5" y="435" as="sourcePoint" />
            <mxPoint x="503.5" y="385" as="targetPoint" />
            <Array as="points" />
          </mxGeometry>
        </mxCell>
        <mxCell id="v_qmOf7fBxiH28mY6GMx-26" value="" style="endArrow=none;html=1;rounded=0;entryX=0.5;entryY=1;entryDx=0;entryDy=0;exitX=0.5;exitY=0;exitDx=0;exitDy=0;" edge="1" parent="1" source="v_qmOf7fBxiH28mY6GMx-2" target="v_qmOf7fBxiH28mY6GMx-13">
          <mxGeometry width="50" height="50" relative="1" as="geometry">
            <mxPoint x="463.5" y="445" as="sourcePoint" />
            <mxPoint x="513.5" y="395" as="targetPoint" />
            <Array as="points" />
          </mxGeometry>
        </mxCell>
        <mxCell id="v_qmOf7fBxiH28mY6GMx-27" value="" style="endArrow=none;html=1;rounded=0;entryX=0;entryY=0.5;entryDx=0;entryDy=0;exitX=1;exitY=0;exitDx=0;exitDy=0;" edge="1" parent="1" source="v_qmOf7fBxiH28mY6GMx-2" target="v_qmOf7fBxiH28mY6GMx-17">
          <mxGeometry width="50" height="50" relative="1" as="geometry">
            <mxPoint x="473.5" y="455" as="sourcePoint" />
            <mxPoint x="523.5" y="405" as="targetPoint" />
            <Array as="points" />
          </mxGeometry>
        </mxCell>
        <mxCell id="v_qmOf7fBxiH28mY6GMx-28" value="" style="endArrow=none;html=1;rounded=0;entryX=1;entryY=1;entryDx=0;entryDy=0;exitX=0;exitY=0.5;exitDx=0;exitDy=0;" edge="1" parent="1" source="v_qmOf7fBxiH28mY6GMx-16" target="v_qmOf7fBxiH28mY6GMx-2">
          <mxGeometry width="50" height="50" relative="1" as="geometry">
            <mxPoint x="483.5" y="465" as="sourcePoint" />
            <mxPoint x="534" y="415" as="targetPoint" />
            <Array as="points" />
          </mxGeometry>
        </mxCell>
        <mxCell id="v_qmOf7fBxiH28mY6GMx-29" value="" style="endArrow=none;html=1;rounded=0;entryX=0.5;entryY=1;entryDx=0;entryDy=0;exitX=0.5;exitY=0;exitDx=0;exitDy=0;" edge="1" parent="1" source="v_qmOf7fBxiH28mY6GMx-18" target="v_qmOf7fBxiH28mY6GMx-2">
          <mxGeometry width="50" height="50" relative="1" as="geometry">
            <mxPoint x="493.5" y="475" as="sourcePoint" />
            <mxPoint x="543.5" y="425" as="targetPoint" />
            <Array as="points" />
          </mxGeometry>
        </mxCell>
      </root>
    </mxGraphModel>
  </diagram>
</mxfile>
